<mxfile host="app.diagrams.net" modified="2024-06-01T03:46:06.654Z" agent="Mozilla/5.0 (Windows NT 10.0; Win64; x64) AppleWebKit/537.36 (KHTML, like Gecko) Chrome/125.0.0.0 Safari/537.36" version="24.4.9" etag="rWmeZJMkyFbHcAV04H8J" type="github">
  <diagram name="Page-1" id="3b3OP00QxRM85oqDfntK">
    <mxGraphModel>
      <root>
        <mxCell id="0" />
        <mxCell id="1" parent="0" />
      </root>
    </mxGraphModel>
  </diagram>
</mxfile>
